<svg width="64" height="64" viewBox="0 0 64 64" fill="none" xmlns="http://www.w3.org/2000/svg">
<path fill-rule="evenodd" clip-rule="evenodd" d="M15.5 31C21.8513 31 27 25.8513 27 19.5C27 13.1487 21.8513 8 15.5 8C9.14873 8 4 13.1487 4 19.5C4 25.8513 9.14873 31 15.5 31ZM48.5 57C54.8513 57 60 51.8513 60 45.5C60 39.1487 54.8513 34 48.5 34C42.1487 34 37 39.1487 37 45.5C37 51.8513 42.1487 57 48.5 57ZM29 19C29 16.7909 30.7909 15 33 15H56C58.2091 15 60 16.7909 60 19C60 21.2091 58.2091 23 56 23H33C30.7909 23 29 21.2091 29 19ZM8 42C5.79086 42 4 43.7909 4 46C4 48.2091 5.79086 50 8 50H31C33.2091 50 35 48.2091 35 46C35 43.7909 33.2091 42 31 42H8Z" fill="#23CAFF"/>
</svg>
