<svg width="64" height="64" viewBox="0 0 64 64" fill="none" xmlns="http://www.w3.org/2000/svg">
<path d="M40.4941 21.84C40.8892 22.4926 41.5753 22.9333 42.3382 22.9333H44.8C47.9296 22.9333 50.4667 25.4704 50.4667 28.6C50.4667 29.1896 50.9046 29.7333 51.4942 29.7333H52.1667C56.8611 29.7333 60.6667 33.5389 60.6667 38.2333V40.5C60.6667 45.1944 56.8611 49 52.1667 49H11.9333C7.55188 49 4 45.4481 4 41.0667C4 36.6852 7.55187 33.1333 11.9333 33.1333H12.0976C13.4305 33.1333 14.3894 31.8463 14.2637 30.5193C14.2216 30.0741 14.2 29.6229 14.2 29.1667C14.2 21.3426 20.5426 15 28.3667 15C33.5092 15 38.0118 17.7401 40.4941 21.84Z" fill="#23CAFF"/>
</svg>
